# Blender v2.79 (sub 0) OBJ File: ''
# www.blender.org
mtllib test2222.mtl
o Cube
v 1.000000 -1.000000 -1.000000
v 1.000000 -1.000000 1.000000
v -1.000000 -1.000000 1.000000
v -1.000000 -1.000000 -1.000000
v 1.000000 1.000000 -0.999999
v 0.999999 1.000000 1.000001
v -1.000000 1.000000 1.000000
v -1.000000 1.000000 -1.000000
v 1.000000 -1.000000 -2.616787
v -0.999999 -1.000000 -2.616787
v 1.000001 1.000000 -2.616787
v -1.000000 1.000000 -2.616787
v 0.999999 -1.000000 3.163225
v -1.000001 -1.000000 3.163225
v 0.999999 1.000000 3.163226
v -1.000001 1.000000 3.163225
v 1.000000 2.873780 -0.999999
v 0.999999 2.873780 1.000001
v -1.000000 2.873780 -1.000000
v -1.000000 2.873780 1.000000
v 1.000000 -2.266112 -1.000000
v 1.000000 -2.266112 1.000000
v -1.000000 -2.266112 -1.000000
v -1.000000 -2.266112 1.000000
vn 1.0000 0.0000 0.0000
vn 0.0000 -1.0000 -0.0000
vn -1.0000 -0.0000 -0.0000
vn -0.0000 -0.0000 1.0000
vn 0.0000 0.0000 -1.0000
vn 0.0000 1.0000 0.0000
usemtl Material
s off
f 1//1 5//1 6//1 2//1
f 3//2 2//2 13//2 14//2
f 3//3 7//3 8//3 4//3
f 13//4 15//4 16//4 14//4
f 7//3 3//3 14//3 16//3
usemtl Material.001
f 5//5 8//5 19//5 17//5
f 17//6 19//6 20//6 18//6
f 7//4 6//4 18//4 20//4
f 6//1 5//1 17//1 18//1
f 8//3 7//3 20//3 19//3
usemtl Material.002
f 8//6 5//6 11//6 12//6
f 11//5 9//5 10//5 12//5
f 4//3 8//3 12//3 10//3
f 1//2 4//2 10//2 9//2
f 5//1 1//1 9//1 11//1
usemtl Material.003
f 3//3 4//3 23//3 24//3
f 21//2 22//2 24//2 23//2
f 2//4 3//4 24//4 22//4
f 4//5 1//5 21//5 23//5
f 1//1 2//1 22//1 21//1
usemtl Material.004
f 6//6 7//6 16//6 15//6
f 2//1 6//1 15//1 13//1
