# 3ds Max Wavefront OBJ Exporter v0.97b - (c)2007 guruware
# 创建的文件:17.09.2019 11:21:45

mtllib test004.mtl

#
# object Plane062
#

v  -8.5011 -5.9902 -18.8498
v  -12.3145 -5.9902 -18.8498
v  -12.3145 -5.9902 -15.0364
v  -8.5011 -5.9902 -15.0364
v  -3.6246 -5.9902 -18.8498
v  -7.4379 -5.9902 -18.8498
v  -7.4379 -5.9902 -15.0364
v  -3.6246 -5.9902 -15.0364
v  -13.6159 -5.9902 -18.8498
v  -17.4293 -5.9902 -18.8498
v  -17.4293 -5.9902 -15.0364
v  -13.6159 -5.9902 -15.0364
v  -20.3412 -5.9902 -13.8281
v  -21.4106 -5.9902 -13.8281
v  -21.4106 -5.9902 -12.7587
v  -20.3412 -5.9902 -12.7587
v  -22.7325 -5.9902 -14.0609
v  -24.2675 -5.9902 -14.0609
v  -24.2675 -5.9902 -12.5259
v  -22.7325 -5.9902 -12.5259
v  -16.8675 -5.9902 8.4449
v  -21.5904 -5.9902 8.4449
v  -21.5904 -5.9902 13.1678
v  -16.8675 -5.9902 13.1678
v  -13.6559 -5.9902 10.8520
v  -16.5903 -5.9902 10.8520
v  -16.5903 -5.9902 13.7864
v  -13.6559 -5.9902 13.7864
v  11.7022 -5.9902 -6.8449
v  7.8888 -5.9902 -6.8449
v  7.8888 -5.9902 -3.0315
v  11.7022 -5.9902 -3.0315
v  18.3507 -5.9902 9.8316
v  15.4164 -5.9902 9.8316
v  15.4164 -5.9902 12.7660
v  18.3507 -5.9902 12.7660
v  -34.7262 -5.9902 -14.4173
v  -36.9740 -5.9902 -14.4173
v  -36.9740 -5.9902 -12.1695
v  -34.7262 -5.9902 -12.1695
v  -30.9219 -5.9902 -14.4173
v  -33.1698 -5.9902 -14.4173
v  -33.1698 -5.9902 -12.1695
v  -30.9219 -5.9902 -12.1695
v  -37.7451 -5.9902 -19.6163
v  -39.9930 -5.9902 -19.6163
v  -39.9930 -5.9902 -17.3685
v  -37.7451 -5.9902 -17.3685
v  -40.4013 -5.9902 -12.3561
v  -41.9499 -5.9902 -12.3561
v  -41.9499 -5.9902 -10.8075
v  -40.4013 -5.9902 -10.8075
v  -34.0675 -5.9902 -8.7453
v  -36.1191 -5.9902 -8.7453
v  -36.1191 -5.9902 -6.6936
v  -34.0675 -5.9902 -6.6936
v  -36.1512 -5.9902 -11.1535
v  -38.2028 -5.9902 -11.1535
v  -38.2028 -5.9902 -9.1019
v  -36.1512 -5.9902 -9.1019
v  -39.8817 -5.9902 -10.8416
v  -41.3362 -5.9902 -10.8416
v  -41.3362 -5.9902 -9.3870
v  -39.8817 -5.9902 -9.3870
v  -39.2165 -5.9902 -14.2850
v  -41.1996 -5.9902 -14.2850
v  -41.1996 -5.9902 -12.3019
v  -39.2165 -5.9902 -12.3019
v  -37.7492 -5.9902 -6.6162
v  -39.8008 -5.9902 -6.6162
v  -39.8008 -5.9902 -4.5646
v  -37.7492 -5.9902 -4.5646
v  -39.9765 -5.9902 -7.6808
v  -41.7238 -5.9902 -7.6808
v  -41.7238 -5.9902 -5.9335
v  -39.9765 -5.9902 -5.9335
v  -33.4444 -5.9902 0.0012
v  -35.8931 -5.9902 0.0012
v  -35.8931 -5.9902 2.4498
v  -33.4444 -5.9902 2.4498
v  -31.0350 -5.9902 0.0012
v  -33.4836 -5.9902 0.0012
v  -33.4836 -5.9902 2.4498
v  -31.0350 -5.9902 2.4498
v  -28.6402 -5.9902 0.0012
v  -31.0888 -5.9902 0.0012
v  -31.0888 -5.9902 2.4498
v  -28.6402 -5.9902 2.4498
v  -26.1863 -5.9902 0.0012
v  -28.6349 -5.9902 0.0012
v  -28.6349 -5.9902 2.4498
v  -26.1863 -5.9902 2.4498
v  -21.5514 -5.9902 -0.9022
v  -24.0000 -5.9902 -0.9022
v  -24.0000 -5.9902 1.5464
v  -21.5514 -5.9902 1.5464
v  -25.7550 -5.9902 -4.0603
v  -28.2036 -5.9902 -4.0603
v  -28.2036 -5.9902 -1.6117
v  -25.7550 -5.9902 -1.6117
v  -22.0203 -5.9902 5.2434
v  -24.4689 -5.9902 5.2434
v  -24.4689 -5.9902 7.6920
v  -22.0203 -5.9902 7.6920
v  -31.1892 -5.9902 10.2951
v  -34.5101 -5.9902 10.2951
v  -34.5101 -5.9902 13.6160
v  -31.1892 -5.9902 13.6160
v  -32.7819 -5.9902 6.1809
v  -35.2306 -5.9902 6.1809
v  -35.2306 -5.9902 8.6295
v  -32.7819 -5.9902 8.6295
v  -37.7958 -5.9902 5.9078
v  -40.2444 -5.9902 5.9078
v  -40.2444 -5.9902 8.3564
v  -37.7958 -5.9902 8.3564
v  -53.1876 -5.9902 2.0518
v  -56.3497 -5.9902 2.0518
v  -56.3497 -5.9902 5.2139
v  -53.1876 -5.9902 5.2139
v  -56.9688 -5.9902 1.6640
v  -62.5304 -5.9902 1.6640
v  -62.5304 -5.9902 7.2114
v  -56.9688 -5.9902 7.2114
v  -62.7537 -5.9902 1.6640
v  -68.3152 -5.9902 1.6640
v  -68.3152 -5.9902 7.2114
v  -62.7537 -5.9902 7.2114
v  -68.9829 -5.9902 1.9420
v  -73.9869 -5.9902 1.9420
v  -73.9869 -5.9902 6.9334
v  -68.9829 -5.9902 6.9334
v  -68.1101 -5.9902 -0.2788
v  -70.1061 -5.9902 -0.2788
v  -70.1061 -5.9902 1.7171
v  -68.1101 -5.9902 1.7171
v  -67.0395 -5.9902 -5.5568
v  -69.1706 -5.9902 -5.5568
v  -69.1706 -5.9902 -3.4256
v  -67.0395 -5.9902 -3.4256
v  -61.0484 -5.9902 -5.5568
v  -63.1796 -5.9902 -5.5568
v  -63.1796 -5.9902 -3.4256
v  -61.0484 -5.9902 -3.4256
v  -55.2873 -5.9902 -5.5568
v  -57.4184 -5.9902 -5.5568
v  -57.4184 -5.9902 -3.4256
v  -55.2873 -5.9902 -3.4256
v  -57.1940 -5.9465 -10.9909
v  -62.6512 -5.9465 -10.9909
v  -62.6512 -5.9465 -5.5475
v  -57.1940 -5.9465 -5.5475
v  -63.4733 -5.9902 -10.5833
v  -68.1133 -5.9902 -10.5833
v  -68.1133 -5.9902 -5.9551
v  -63.4733 -5.9902 -5.9551
v  -69.5100 -5.9902 -10.5833
v  -74.1500 -5.9902 -10.5833
v  -74.1500 -5.9902 -5.9551
v  -69.5100 -5.9902 -5.9551
v  -74.8234 -5.9902 -10.5833
v  -79.4634 -5.9902 -10.5833
v  -79.4634 -5.9902 -5.9551
v  -74.8234 -5.9902 -5.9551
v  -81.1250 -5.9902 -10.5833
v  -85.7650 -5.9902 -10.5833
v  -85.7650 -5.9902 -5.9551
v  -81.1250 -5.9902 -5.9551
v  -75.2882 -5.9465 -19.7628
v  -80.2942 -5.9465 -19.7628
v  -80.2942 -5.9465 -14.7695
v  -75.2882 -5.9465 -14.7695
v  -62.2571 -5.9465 -19.3307
v  -65.1873 -5.9465 -19.3307
v  -65.1873 -5.9465 -16.4080
v  -62.2571 -5.9465 -16.4080
v  -58.9260 -5.9465 -19.3307
v  -61.8562 -5.9465 -19.3307
v  -61.8562 -5.9465 -16.4080
v  -58.9260 -5.9465 -16.4080
v  -72.9517 -5.9902 -5.4644
v  -75.2272 -5.9902 -5.4644
v  -75.2272 -5.9902 -3.1889
v  -72.9517 -5.9902 -3.1889
v  -78.5952 -5.9902 -5.7516
v  -81.1653 -5.9902 -5.7516
v  -81.1653 -5.9902 -3.1814
v  -78.5952 -5.9902 -3.1814
v  -80.6155 -5.9902 1.7474
v  -86.0098 -5.9902 1.7474
v  -86.0098 -5.9902 7.1280
v  -80.6155 -5.9902 7.1280
v  -74.9125 -5.9902 2.1131
v  -79.5735 -5.9902 2.1131
v  -79.5735 -5.9902 6.7623
v  -74.9125 -5.9902 6.7623
v  43.6680 -5.9902 8.7880
v  40.7337 -5.9902 8.7880
v  40.7337 -5.9902 11.7224
v  43.6680 -5.9902 11.7224
v  35.9218 -5.9902 -9.0518
v  33.9181 -5.9902 -9.0518
v  33.9181 -5.9902 -7.0480
v  35.9218 -5.9902 -7.0480
v  -81.7649 -5.9465 -19.4148
v  -84.8637 -5.9465 -19.4148
v  -84.8637 -5.9465 -16.3239
v  -81.7649 -5.9465 -16.3239
v  -12.3145 -6.0002 -15.0364
v  -12.3145 -6.0002 -18.8498
v  -8.5011 -6.0002 -18.8498
v  -8.5011 -6.0002 -15.0364
v  -7.4379 -6.0002 -15.0364
v  -7.4379 -6.0002 -18.8498
v  -3.6246 -6.0002 -18.8498
v  -3.6246 -6.0002 -15.0364
v  -17.4293 -6.0002 -15.0364
v  -17.4293 -6.0002 -18.8498
v  -13.6159 -6.0002 -18.8498
v  -13.6159 -6.0002 -15.0364
v  -21.4106 -6.0002 -12.7587
v  -21.4106 -6.0002 -13.8281
v  -20.3412 -6.0002 -13.8281
v  -20.3412 -6.0002 -12.7587
v  -24.2675 -6.0002 -12.5259
v  -24.2675 -6.0002 -14.0609
v  -22.7325 -6.0002 -14.0609
v  -22.7325 -6.0002 -12.5259
v  -21.5904 -6.0002 13.1678
v  -21.5904 -6.0002 8.4449
v  -16.8675 -6.0002 8.4449
v  -16.8675 -6.0002 13.1678
v  -16.5903 -6.0002 13.7864
v  -16.5903 -6.0002 10.8520
v  -13.6559 -6.0002 10.8520
v  -13.6559 -6.0002 13.7864
v  7.8888 -6.0002 -3.0315
v  7.8888 -6.0002 -6.8449
v  11.7022 -6.0002 -6.8449
v  11.7022 -6.0002 -3.0315
v  15.4164 -6.0002 12.7660
v  15.4164 -6.0002 9.8316
v  18.3507 -6.0002 9.8316
v  18.3507 -6.0002 12.7660
v  -36.9740 -6.0002 -12.1695
v  -36.9740 -6.0002 -14.4173
v  -34.7262 -6.0002 -14.4173
v  -34.7262 -6.0002 -12.1695
v  -33.1698 -6.0002 -12.1695
v  -33.1698 -6.0002 -14.4173
v  -30.9219 -6.0002 -14.4173
v  -30.9219 -6.0002 -12.1695
v  -39.9930 -6.0002 -17.3685
v  -39.9930 -6.0002 -19.6163
v  -37.7451 -6.0002 -19.6163
v  -37.7451 -6.0002 -17.3685
v  -41.9499 -6.0002 -10.8075
v  -41.9499 -6.0002 -12.3561
v  -40.4013 -6.0002 -12.3561
v  -40.4013 -6.0002 -10.8075
v  -36.1191 -6.0002 -6.6936
v  -36.1191 -6.0002 -8.7453
v  -34.0675 -6.0002 -8.7453
v  -34.0675 -6.0002 -6.6936
v  -38.2028 -6.0002 -9.1019
v  -38.2028 -6.0002 -11.1535
v  -36.1512 -6.0002 -11.1535
v  -36.1512 -6.0002 -9.1019
v  -41.3362 -6.0002 -9.3870
v  -41.3362 -6.0002 -10.8416
v  -39.8817 -6.0002 -10.8416
v  -39.8817 -6.0002 -9.3870
v  -41.1996 -6.0002 -12.3019
v  -41.1996 -6.0002 -14.2850
v  -39.2165 -6.0002 -14.2850
v  -39.2165 -6.0002 -12.3019
v  -39.8008 -6.0002 -4.5646
v  -39.8008 -6.0002 -6.6162
v  -37.7492 -6.0002 -6.6162
v  -37.7492 -6.0002 -4.5646
v  -41.7238 -6.0002 -5.9335
v  -41.7238 -6.0002 -7.6808
v  -39.9765 -6.0002 -7.6808
v  -39.9765 -6.0002 -5.9335
v  -35.8931 -6.0002 2.4498
v  -35.8931 -6.0002 0.0012
v  -33.4444 -6.0002 0.0012
v  -33.4444 -6.0002 2.4498
v  -33.4836 -6.0002 2.4498
v  -33.4836 -6.0002 0.0012
v  -31.0350 -6.0002 0.0012
v  -31.0350 -6.0002 2.4498
v  -31.0888 -6.0002 2.4498
v  -31.0888 -6.0002 0.0012
v  -28.6402 -6.0002 0.0012
v  -28.6402 -6.0002 2.4498
v  -28.6349 -6.0002 2.4498
v  -28.6349 -6.0002 0.0012
v  -26.1863 -6.0002 0.0012
v  -26.1863 -6.0002 2.4498
v  -24.0000 -6.0002 1.5464
v  -24.0000 -6.0002 -0.9022
v  -21.5514 -6.0002 -0.9022
v  -21.5514 -6.0002 1.5464
v  -28.2036 -6.0002 -1.6117
v  -28.2036 -6.0002 -4.0603
v  -25.7550 -6.0002 -4.0603
v  -25.7550 -6.0002 -1.6117
v  -24.4689 -6.0002 7.6920
v  -24.4689 -6.0002 5.2434
v  -22.0203 -6.0002 5.2434
v  -22.0203 -6.0002 7.6920
v  -34.5101 -6.0002 13.6160
v  -34.5101 -6.0002 10.2951
v  -31.1892 -6.0002 10.2951
v  -31.1892 -6.0002 13.6160
v  -35.2306 -6.0002 8.6295
v  -35.2306 -6.0002 6.1809
v  -32.7819 -6.0002 6.1809
v  -32.7819 -6.0002 8.6295
v  -40.2444 -6.0002 8.3564
v  -40.2444 -6.0002 5.9078
v  -37.7958 -6.0002 5.9078
v  -37.7958 -6.0002 8.3564
v  -56.3497 -6.0002 5.2139
v  -56.3497 -6.0002 2.0518
v  -53.1876 -6.0002 2.0518
v  -53.1876 -6.0002 5.2139
v  -62.5304 -6.0002 7.2114
v  -62.5304 -6.0002 1.6640
v  -56.9688 -6.0002 1.6640
v  -56.9688 -6.0002 7.2114
v  -68.3152 -6.0002 7.2114
v  -68.3152 -6.0002 1.6640
v  -62.7537 -6.0002 1.6640
v  -62.7537 -6.0002 7.2114
v  -73.9869 -6.0002 6.9334
v  -73.9869 -6.0002 1.9420
v  -68.9829 -6.0002 1.9420
v  -68.9829 -6.0002 6.9334
v  -70.1061 -6.0002 1.7171
v  -70.1061 -6.0002 -0.2788
v  -68.1101 -6.0002 -0.2788
v  -68.1101 -6.0002 1.7171
v  -69.1706 -6.0002 -3.4256
v  -69.1706 -6.0002 -5.5568
v  -67.0395 -6.0002 -5.5568
v  -67.0395 -6.0002 -3.4256
v  -63.1796 -6.0002 -3.4256
v  -63.1796 -6.0002 -5.5568
v  -61.0484 -6.0002 -5.5568
v  -61.0484 -6.0002 -3.4256
v  -57.4184 -6.0002 -3.4256
v  -57.4184 -6.0002 -5.5568
v  -55.2873 -6.0002 -5.5568
v  -55.2873 -6.0002 -3.4256
v  -62.6512 -5.9565 -5.5475
v  -62.6512 -5.9565 -10.9909
v  -57.1940 -5.9565 -10.9909
v  -57.1940 -5.9565 -5.5475
v  -68.1133 -6.0002 -5.9551
v  -68.1133 -6.0002 -10.5833
v  -63.4733 -6.0002 -10.5833
v  -63.4733 -6.0002 -5.9551
v  -74.1500 -6.0002 -5.9551
v  -74.1500 -6.0002 -10.5833
v  -69.5100 -6.0002 -10.5833
v  -69.5100 -6.0002 -5.9551
v  -79.4634 -6.0002 -5.9551
v  -79.4634 -6.0002 -10.5833
v  -74.8234 -6.0002 -10.5833
v  -74.8234 -6.0002 -5.9551
v  -85.7650 -6.0002 -5.9551
v  -85.7650 -6.0002 -10.5833
v  -81.1250 -6.0002 -10.5833
v  -81.1250 -6.0002 -5.9551
v  -80.2942 -5.9565 -14.7695
v  -80.2942 -5.9565 -19.7628
v  -75.2882 -5.9565 -19.7628
v  -75.2882 -5.9565 -14.7695
v  -65.1873 -5.9565 -16.4080
v  -65.1873 -5.9565 -19.3307
v  -62.2571 -5.9565 -19.3307
v  -62.2571 -5.9565 -16.4080
v  -61.8562 -5.9565 -16.4080
v  -61.8562 -5.9565 -19.3307
v  -58.9260 -5.9565 -19.3307
v  -58.9260 -5.9565 -16.4080
v  -75.2272 -6.0002 -3.1889
v  -75.2272 -6.0002 -5.4644
v  -72.9517 -6.0002 -5.4644
v  -72.9517 -6.0002 -3.1889
v  -81.1653 -6.0002 -3.1814
v  -81.1653 -6.0002 -5.7516
v  -78.5952 -6.0002 -5.7516
v  -78.5952 -6.0002 -3.1814
v  -86.0098 -6.0002 7.1280
v  -86.0098 -6.0002 1.7474
v  -80.6155 -6.0002 1.7474
v  -80.6155 -6.0002 7.1280
v  -79.5735 -6.0002 6.7623
v  -79.5735 -6.0002 2.1131
v  -74.9125 -6.0002 2.1131
v  -74.9125 -6.0002 6.7623
v  40.7337 -6.0002 11.7224
v  40.7337 -6.0002 8.7880
v  43.6680 -6.0002 8.7880
v  43.6680 -6.0002 11.7224
v  33.9181 -6.0002 -7.0480
v  33.9181 -6.0002 -9.0518
v  35.9218 -6.0002 -9.0518
v  35.9218 -6.0002 -7.0480
v  -84.8637 -5.9565 -16.3239
v  -84.8637 -5.9565 -19.4148
v  -81.7649 -5.9565 -19.4148
v  -81.7649 -5.9565 -16.3239
# 416 vertices

vn 0.0000 1.0000 -0.0000
vn 0.0000 -1.0000 -0.0000
vn 0.0000 0.0000 1.0000
vn 1.0000 0.0000 -0.0000
vn 0.0000 0.0000 -1.0000
vn -1.0000 0.0000 -0.0000
# 6 vertex normals

vt 1.0000 1.0000 0.0000
vt 0.0000 1.0000 0.0000
vt 0.0000 0.0000 0.0000
vt 1.0000 0.0000 0.0000
# 4 texture coords

g Plane062
usemtl Material__33
s 1
f 1/1/1 2/2/1 3/3/1 4/4/1 
f 5/1/1 6/2/1 7/3/1 8/4/1 
f 9/1/1 10/2/1 11/3/1 12/4/1 
f 13/1/1 14/2/1 15/3/1 16/4/1 
f 17/1/1 18/2/1 19/3/1 20/4/1 
f 21/1/1 22/2/1 23/3/1 24/4/1 
f 25/1/1 26/2/1 27/3/1 28/4/1 
f 29/1/1 30/2/1 31/3/1 32/4/1 
f 33/1/1 34/2/1 35/3/1 36/4/1 
f 37/1/1 38/2/1 39/3/1 40/4/1 
f 41/1/1 42/2/1 43/3/1 44/4/1 
f 45/1/1 46/2/1 47/3/1 48/4/1 
f 49/1/1 50/2/1 51/3/1 52/4/1 
f 53/1/1 54/2/1 55/3/1 56/4/1 
f 57/1/1 58/2/1 59/3/1 60/4/1 
f 61/1/1 62/2/1 63/3/1 64/4/1 
f 65/1/1 66/2/1 67/3/1 68/4/1 
f 69/1/1 70/2/1 71/3/1 72/4/1 
f 73/1/1 74/2/1 75/3/1 76/4/1 
f 77/1/1 78/2/1 79/3/1 80/4/1 
f 81/1/1 82/2/1 83/3/1 84/4/1 
f 85/1/1 86/2/1 87/3/1 88/4/1 
f 89/1/1 90/2/1 91/3/1 92/4/1 
f 93/1/1 94/2/1 95/3/1 96/4/1 
f 97/1/1 98/2/1 99/3/1 100/4/1 
f 101/1/1 102/2/1 103/3/1 104/4/1 
f 105/1/1 106/2/1 107/3/1 108/4/1 
f 109/1/1 110/2/1 111/3/1 112/4/1 
f 113/1/1 114/2/1 115/3/1 116/4/1 
f 117/1/1 118/2/1 119/3/1 120/4/1 
f 121/1/1 122/2/1 123/3/1 124/4/1 
f 125/1/1 126/2/1 127/3/1 128/4/1 
f 129/1/1 130/2/1 131/3/1 132/4/1 
f 133/1/1 134/2/1 135/3/1 136/4/1 
f 137/1/1 138/2/1 139/3/1 140/4/1 
f 141/1/1 142/2/1 143/3/1 144/4/1 
f 145/1/1 146/2/1 147/3/1 148/4/1 
f 149/1/1 150/2/1 151/3/1 152/4/1 
f 153/1/1 154/2/1 155/3/1 156/4/1 
f 157/1/1 158/2/1 159/3/1 160/4/1 
f 161/1/1 162/2/1 163/3/1 164/4/1 
f 165/1/1 166/2/1 167/3/1 168/4/1 
f 169/1/1 170/2/1 171/3/1 172/4/1 
f 173/1/1 174/2/1 175/3/1 176/4/1 
f 177/1/1 178/2/1 179/3/1 180/4/1 
f 181/1/1 182/2/1 183/3/1 184/4/1 
f 185/1/1 186/2/1 187/3/1 188/4/1 
f 189/1/1 190/2/1 191/3/1 192/4/1 
f 193/1/1 194/2/1 195/3/1 196/4/1 
f 197/1/1 198/2/1 199/3/1 200/4/1 
f 201/1/1 202/2/1 203/3/1 204/4/1 
f 205/1/1 206/2/1 207/3/1 208/4/1 
f 209/3/2 210/2/2 211/1/2 212/4/2 
f 213/3/2 214/2/2 215/1/2 216/4/2 
f 217/3/2 218/2/2 219/1/2 220/4/2 
f 221/3/2 222/2/2 223/1/2 224/4/2 
f 225/3/2 226/2/2 227/1/2 228/4/2 
f 229/3/2 230/2/2 231/1/2 232/4/2 
f 233/3/2 234/2/2 235/1/2 236/4/2 
f 237/3/2 238/2/2 239/1/2 240/4/2 
f 241/3/2 242/2/2 243/1/2 244/4/2 
f 245/3/2 246/2/2 247/1/2 248/4/2 
f 249/3/2 250/2/2 251/1/2 252/4/2 
f 253/3/2 254/2/2 255/1/2 256/4/2 
f 257/3/2 258/2/2 259/1/2 260/4/2 
f 261/3/2 262/2/2 263/1/2 264/4/2 
f 265/3/2 266/2/2 267/1/2 268/4/2 
f 269/3/2 270/2/2 271/1/2 272/4/2 
f 273/3/2 274/2/2 275/1/2 276/4/2 
f 277/3/2 278/2/2 279/1/2 280/4/2 
f 281/3/2 282/2/2 283/1/2 284/4/2 
f 285/3/2 286/2/2 287/1/2 288/4/2 
f 289/3/2 290/2/2 291/1/2 292/4/2 
f 293/3/2 294/2/2 295/1/2 296/4/2 
f 297/3/2 298/2/2 299/1/2 300/4/2 
f 301/3/2 302/2/2 303/1/2 304/4/2 
f 305/3/2 306/2/2 307/1/2 308/4/2 
f 309/3/2 310/2/2 311/1/2 312/4/2 
f 313/3/2 314/2/2 315/1/2 316/4/2 
f 317/3/2 318/2/2 319/1/2 320/4/2 
f 321/3/2 322/2/2 323/1/2 324/4/2 
f 325/3/2 326/2/2 327/1/2 328/4/2 
f 329/3/2 330/2/2 331/1/2 332/4/2 
f 333/3/2 334/2/2 335/1/2 336/4/2 
f 337/3/2 338/2/2 339/1/2 340/4/2 
f 341/3/2 342/2/2 343/1/2 344/4/2 
f 345/3/2 346/2/2 347/1/2 348/4/2 
f 349/3/2 350/2/2 351/1/2 352/4/2 
f 353/3/2 354/2/2 355/1/2 356/4/2 
f 357/3/2 358/2/2 359/1/2 360/4/2 
f 361/3/2 362/2/2 363/1/2 364/4/2 
f 365/3/2 366/2/2 367/1/2 368/4/2 
f 369/3/2 370/2/2 371/1/2 372/4/2 
f 373/3/2 374/2/2 375/1/2 376/4/2 
f 377/3/2 378/2/2 379/1/2 380/4/2 
f 381/3/2 382/2/2 383/1/2 384/4/2 
f 385/3/2 386/2/2 387/1/2 388/4/2 
f 389/3/2 390/2/2 391/1/2 392/4/2 
f 393/3/2 394/2/2 395/1/2 396/4/2 
f 397/3/2 398/2/2 399/1/2 400/4/2 
f 401/3/2 402/2/2 403/1/2 404/4/2 
f 405/3/2 406/2/2 407/1/2 408/4/2 
f 409/3/2 410/2/2 411/1/2 412/4/2 
f 413/3/2 414/2/2 415/1/2 416/4/2 
s 2
f 209/3/3 212/4/3 4/4/3 3/3/3 
s 4
f 212/4/4 211/1/4 1/1/4 4/4/4 
s 2
f 211/1/5 210/2/5 2/2/5 1/1/5 
s 4
f 210/2/6 209/3/6 3/3/6 2/2/6 
s 2
f 213/3/3 216/4/3 8/4/3 7/3/3 
s 4
f 216/4/4 215/1/4 5/1/4 8/4/4 
s 2
f 215/1/5 214/2/5 6/2/5 5/1/5 
s 4
f 214/2/6 213/3/6 7/3/6 6/2/6 
s 2
f 217/3/3 220/4/3 12/4/3 11/3/3 
s 4
f 220/4/4 219/1/4 9/1/4 12/4/4 
s 2
f 219/1/5 218/2/5 10/2/5 9/1/5 
s 4
f 218/2/6 217/3/6 11/3/6 10/2/6 
s 2
f 221/3/3 224/4/3 16/4/3 15/3/3 
s 4
f 224/4/4 223/1/4 13/1/4 16/4/4 
s 2
f 223/1/5 222/2/5 14/2/5 13/1/5 
s 4
f 222/2/6 221/3/6 15/3/6 14/2/6 
s 2
f 225/3/3 228/4/3 20/4/3 19/3/3 
s 4
f 228/4/4 227/1/4 17/1/4 20/4/4 
s 2
f 227/1/5 226/2/5 18/2/5 17/1/5 
s 4
f 226/2/6 225/3/6 19/3/6 18/2/6 
s 2
f 229/3/3 232/4/3 24/4/3 23/3/3 
s 4
f 232/4/4 231/1/4 21/1/4 24/4/4 
s 2
f 231/1/5 230/2/5 22/2/5 21/1/5 
s 4
f 230/2/6 229/3/6 23/3/6 22/2/6 
s 2
f 233/3/3 236/4/3 28/4/3 27/3/3 
s 4
f 236/4/4 235/1/4 25/1/4 28/4/4 
s 2
f 235/1/5 234/2/5 26/2/5 25/1/5 
s 4
f 234/2/6 233/3/6 27/3/6 26/2/6 
s 2
f 237/3/3 240/4/3 32/4/3 31/3/3 
s 4
f 240/4/4 239/1/4 29/1/4 32/4/4 
s 2
f 239/1/5 238/2/5 30/2/5 29/1/5 
s 4
f 238/2/6 237/3/6 31/3/6 30/2/6 
s 2
f 241/3/3 244/4/3 36/4/3 35/3/3 
s 4
f 244/4/4 243/1/4 33/1/4 36/4/4 
s 2
f 243/1/5 242/2/5 34/2/5 33/1/5 
s 4
f 242/2/6 241/3/6 35/3/6 34/2/6 
s 2
f 245/3/3 248/4/3 40/4/3 39/3/3 
s 4
f 248/4/4 247/1/4 37/1/4 40/4/4 
s 2
f 247/1/5 246/2/5 38/2/5 37/1/5 
s 4
f 246/2/6 245/3/6 39/3/6 38/2/6 
s 2
f 249/3/3 252/4/3 44/4/3 43/3/3 
s 4
f 252/4/4 251/1/4 41/1/4 44/4/4 
s 2
f 251/1/5 250/2/5 42/2/5 41/1/5 
s 4
f 250/2/6 249/3/6 43/3/6 42/2/6 
s 2
f 253/3/3 256/4/3 48/4/3 47/3/3 
s 4
f 256/4/4 255/1/4 45/1/4 48/4/4 
s 2
f 255/1/5 254/2/5 46/2/5 45/1/5 
s 4
f 254/2/6 253/3/6 47/3/6 46/2/6 
s 2
f 257/3/3 260/4/3 52/4/3 51/3/3 
s 4
f 260/4/4 259/1/4 49/1/4 52/4/4 
s 2
f 259/1/5 258/2/5 50/2/5 49/1/5 
s 4
f 258/2/6 257/3/6 51/3/6 50/2/6 
s 2
f 261/3/3 264/4/3 56/4/3 55/3/3 
s 4
f 264/4/4 263/1/4 53/1/4 56/4/4 
s 2
f 263/1/5 262/2/5 54/2/5 53/1/5 
s 4
f 262/2/6 261/3/6 55/3/6 54/2/6 
s 2
f 265/3/3 268/4/3 60/4/3 59/3/3 
s 4
f 268/4/4 267/1/4 57/1/4 60/4/4 
s 2
f 267/1/5 266/2/5 58/2/5 57/1/5 
s 4
f 266/2/6 265/3/6 59/3/6 58/2/6 
s 2
f 269/3/3 272/4/3 64/4/3 63/3/3 
s 4
f 272/4/4 271/1/4 61/1/4 64/4/4 
s 2
f 271/1/5 270/2/5 62/2/5 61/1/5 
s 4
f 270/2/6 269/3/6 63/3/6 62/2/6 
s 2
f 273/3/3 276/4/3 68/4/3 67/3/3 
s 4
f 276/4/4 275/1/4 65/1/4 68/4/4 
s 2
f 275/1/5 274/2/5 66/2/5 65/1/5 
s 4
f 274/2/6 273/3/6 67/3/6 66/2/6 
s 2
f 277/3/3 280/4/3 72/4/3 71/3/3 
s 4
f 280/4/4 279/1/4 69/1/4 72/4/4 
s 2
f 279/1/5 278/2/5 70/2/5 69/1/5 
s 4
f 278/2/6 277/3/6 71/3/6 70/2/6 
s 2
f 281/3/3 284/4/3 76/4/3 75/3/3 
s 4
f 284/4/4 283/1/4 73/1/4 76/4/4 
s 2
f 283/1/5 282/2/5 74/2/5 73/1/5 
s 4
f 282/2/6 281/3/6 75/3/6 74/2/6 
s 2
f 285/3/3 288/4/3 80/4/3 79/3/3 
s 4
f 288/4/4 287/1/4 77/1/4 80/4/4 
s 2
f 287/1/5 286/2/5 78/2/5 77/1/5 
s 4
f 286/2/6 285/3/6 79/3/6 78/2/6 
s 2
f 289/3/3 292/4/3 84/4/3 83/3/3 
s 4
f 292/4/4 291/1/4 81/1/4 84/4/4 
s 2
f 291/1/5 290/2/5 82/2/5 81/1/5 
s 4
f 290/2/6 289/3/6 83/3/6 82/2/6 
s 2
f 293/3/3 296/4/3 88/4/3 87/3/3 
s 4
f 296/4/4 295/1/4 85/1/4 88/4/4 
s 2
f 295/1/5 294/2/5 86/2/5 85/1/5 
s 4
f 294/2/6 293/3/6 87/3/6 86/2/6 
s 2
f 297/3/3 300/4/3 92/4/3 91/3/3 
s 4
f 300/4/4 299/1/4 89/1/4 92/4/4 
s 2
f 299/1/5 298/2/5 90/2/5 89/1/5 
s 4
f 298/2/6 297/3/6 91/3/6 90/2/6 
s 2
f 301/3/3 304/4/3 96/4/3 95/3/3 
s 4
f 304/4/4 303/1/4 93/1/4 96/4/4 
s 2
f 303/1/5 302/2/5 94/2/5 93/1/5 
s 4
f 302/2/6 301/3/6 95/3/6 94/2/6 
s 2
f 305/3/3 308/4/3 100/4/3 99/3/3 
s 4
f 308/4/4 307/1/4 97/1/4 100/4/4 
s 2
f 307/1/5 306/2/5 98/2/5 97/1/5 
s 4
f 306/2/6 305/3/6 99/3/6 98/2/6 
s 2
f 309/3/3 312/4/3 104/4/3 103/3/3 
s 4
f 312/4/4 311/1/4 101/1/4 104/4/4 
s 2
f 311/1/5 310/2/5 102/2/5 101/1/5 
s 4
f 310/2/6 309/3/6 103/3/6 102/2/6 
s 2
f 313/3/3 316/4/3 108/4/3 107/3/3 
s 4
f 316/4/4 315/1/4 105/1/4 108/4/4 
s 2
f 315/1/5 314/2/5 106/2/5 105/1/5 
s 4
f 314/2/6 313/3/6 107/3/6 106/2/6 
s 2
f 317/3/3 320/4/3 112/4/3 111/3/3 
s 4
f 320/4/4 319/1/4 109/1/4 112/4/4 
s 2
f 319/1/5 318/2/5 110/2/5 109/1/5 
s 4
f 318/2/6 317/3/6 111/3/6 110/2/6 
s 2
f 321/3/3 324/4/3 116/4/3 115/3/3 
s 4
f 324/4/4 323/1/4 113/1/4 116/4/4 
s 2
f 323/1/5 322/2/5 114/2/5 113/1/5 
s 4
f 322/2/6 321/3/6 115/3/6 114/2/6 
s 2
f 325/3/3 328/4/3 120/4/3 119/3/3 
s 4
f 328/4/4 327/1/4 117/1/4 120/4/4 
s 2
f 327/1/5 326/2/5 118/2/5 117/1/5 
s 4
f 326/2/6 325/3/6 119/3/6 118/2/6 
s 2
f 329/3/3 332/4/3 124/4/3 123/3/3 
s 4
f 332/4/4 331/1/4 121/1/4 124/4/4 
s 2
f 331/1/5 330/2/5 122/2/5 121/1/5 
s 4
f 330/2/6 329/3/6 123/3/6 122/2/6 
s 2
f 333/3/3 336/4/3 128/4/3 127/3/3 
s 4
f 336/4/4 335/1/4 125/1/4 128/4/4 
s 2
f 335/1/5 334/2/5 126/2/5 125/1/5 
s 4
f 334/2/6 333/3/6 127/3/6 126/2/6 
s 2
f 337/3/3 340/4/3 132/4/3 131/3/3 
s 4
f 340/4/4 339/1/4 129/1/4 132/4/4 
s 2
f 339/1/5 338/2/5 130/2/5 129/1/5 
s 4
f 338/2/6 337/3/6 131/3/6 130/2/6 
s 2
f 341/3/3 344/4/3 136/4/3 135/3/3 
s 4
f 344/4/4 343/1/4 133/1/4 136/4/4 
s 2
f 343/1/5 342/2/5 134/2/5 133/1/5 
s 4
f 342/2/6 341/3/6 135/3/6 134/2/6 
s 2
f 345/3/3 348/4/3 140/4/3 139/3/3 
s 4
f 348/4/4 347/1/4 137/1/4 140/4/4 
s 2
f 347/1/5 346/2/5 138/2/5 137/1/5 
s 4
f 346/2/6 345/3/6 139/3/6 138/2/6 
s 2
f 349/3/3 352/4/3 144/4/3 143/3/3 
s 4
f 352/4/4 351/1/4 141/1/4 144/4/4 
s 2
f 351/1/5 350/2/5 142/2/5 141/1/5 
s 4
f 350/2/6 349/3/6 143/3/6 142/2/6 
s 2
f 353/3/3 356/4/3 148/4/3 147/3/3 
s 4
f 356/4/4 355/1/4 145/1/4 148/4/4 
s 2
f 355/1/5 354/2/5 146/2/5 145/1/5 
s 4
f 354/2/6 353/3/6 147/3/6 146/2/6 
s 2
f 357/3/3 360/4/3 152/4/3 151/3/3 
s 4
f 360/4/4 359/1/4 149/1/4 152/4/4 
s 2
f 359/1/5 358/2/5 150/2/5 149/1/5 
s 4
f 358/2/6 357/3/6 151/3/6 150/2/6 
s 2
f 361/3/3 364/4/3 156/4/3 155/3/3 
s 4
f 364/4/4 363/1/4 153/1/4 156/4/4 
s 2
f 363/1/5 362/2/5 154/2/5 153/1/5 
s 4
f 362/2/6 361/3/6 155/3/6 154/2/6 
s 2
f 365/3/3 368/4/3 160/4/3 159/3/3 
s 4
f 368/4/4 367/1/4 157/1/4 160/4/4 
s 2
f 367/1/5 366/2/5 158/2/5 157/1/5 
s 4
f 366/2/6 365/3/6 159/3/6 158/2/6 
s 2
f 369/3/3 372/4/3 164/4/3 163/3/3 
s 4
f 372/4/4 371/1/4 161/1/4 164/4/4 
s 2
f 371/1/5 370/2/5 162/2/5 161/1/5 
s 4
f 370/2/6 369/3/6 163/3/6 162/2/6 
s 2
f 373/3/3 376/4/3 168/4/3 167/3/3 
s 4
f 376/4/4 375/1/4 165/1/4 168/4/4 
s 2
f 375/1/5 374/2/5 166/2/5 165/1/5 
s 4
f 374/2/6 373/3/6 167/3/6 166/2/6 
s 2
f 377/3/3 380/4/3 172/4/3 171/3/3 
s 4
f 380/4/4 379/1/4 169/1/4 172/4/4 
s 2
f 379/1/5 378/2/5 170/2/5 169/1/5 
s 4
f 378/2/6 377/3/6 171/3/6 170/2/6 
s 2
f 381/3/3 384/4/3 176/4/3 175/3/3 
s 4
f 384/4/4 383/1/4 173/1/4 176/4/4 
s 2
f 383/1/5 382/2/5 174/2/5 173/1/5 
s 4
f 382/2/6 381/3/6 175/3/6 174/2/6 
s 2
f 385/3/3 388/4/3 180/4/3 179/3/3 
s 4
f 388/4/4 387/1/4 177/1/4 180/4/4 
s 2
f 387/1/5 386/2/5 178/2/5 177/1/5 
s 4
f 386/2/6 385/3/6 179/3/6 178/2/6 
s 2
f 389/3/3 392/4/3 184/4/3 183/3/3 
s 4
f 392/4/4 391/1/4 181/1/4 184/4/4 
s 2
f 391/1/5 390/2/5 182/2/5 181/1/5 
s 4
f 390/2/6 389/3/6 183/3/6 182/2/6 
s 2
f 393/3/3 396/4/3 188/4/3 187/3/3 
s 4
f 396/4/4 395/1/4 185/1/4 188/4/4 
s 2
f 395/1/5 394/2/5 186/2/5 185/1/5 
s 4
f 394/2/6 393/3/6 187/3/6 186/2/6 
s 2
f 397/3/3 400/4/3 192/4/3 191/3/3 
s 4
f 400/4/4 399/1/4 189/1/4 192/4/4 
s 2
f 399/1/5 398/2/5 190/2/5 189/1/5 
s 4
f 398/2/6 397/3/6 191/3/6 190/2/6 
s 2
f 401/3/3 404/4/3 196/4/3 195/3/3 
s 4
f 404/4/4 403/1/4 193/1/4 196/4/4 
s 2
f 403/1/5 402/2/5 194/2/5 193/1/5 
s 4
f 402/2/6 401/3/6 195/3/6 194/2/6 
s 2
f 405/3/3 408/4/3 200/4/3 199/3/3 
s 4
f 408/4/4 407/1/4 197/1/4 200/4/4 
s 2
f 407/1/5 406/2/5 198/2/5 197/1/5 
s 4
f 406/2/6 405/3/6 199/3/6 198/2/6 
s 2
f 409/3/3 412/4/3 204/4/3 203/3/3 
s 4
f 412/4/4 411/1/4 201/1/4 204/4/4 
s 2
f 411/1/5 410/2/5 202/2/5 201/1/5 
s 4
f 410/2/6 409/3/6 203/3/6 202/2/6 
s 2
f 413/3/3 416/4/3 208/4/3 207/3/3 
s 4
f 416/4/4 415/1/4 205/1/4 208/4/4 
s 2
f 415/1/5 414/2/5 206/2/5 205/1/5 
s 4
f 414/2/6 413/3/6 207/3/6 206/2/6 
# 312 polygons

